HIERARCHY
ROOT Hips
{
	OFFSET 0.000000 88.474243 0.000000
	CHANNELS 6 Xposition Yposition Zposition Zrotation Yrotation Xrotation 
	JOINT Hips_Spine
	{
		OFFSET 0.000000 0.000000 0.000000
		CHANNELS 3 Zrotation Yrotation Xrotation
		JOINT Spine
		{
			OFFSET 0.005100 8.711998 -0.691000
			CHANNELS 3 Zrotation Yrotation Xrotation
			JOINT Spine1
			{
				OFFSET -0.009200 8.660301 -1.275000
				CHANNELS 3 Zrotation Yrotation Xrotation
				JOINT Spine2
				{
					OFFSET 0.006300 9.852501 -1.857000
					CHANNELS 3 Zrotation Yrotation Xrotation
					JOINT Spine2_Neck
					{
						OFFSET 0.000000 0.000000 0.000000
						CHANNELS 3 Zrotation Yrotation Xrotation
						JOINT Neck
						{
							OFFSET 0.016300 11.420799 -0.263300
							CHANNELS 3 Zrotation Yrotation Xrotation
							End Site #name: Head
							{
								OFFSET -0.019200 9.262405 2.362500
							}
						}
					}
					JOINT Spine2_LeftShoulder
					{
						OFFSET 0.000000 0.000000 0.000000
						CHANNELS 3 Zrotation Yrotation Xrotation
						JOINT LeftShoulder
						{
							OFFSET 5.616900 6.732201 -0.345700
							CHANNELS 3 Zrotation Yrotation Xrotation
							JOINT LeftArm
							{
								OFFSET 10.664888 -0.183372 -2.440700
								CHANNELS 3 Zrotation Yrotation Xrotation
								JOINT LeftForeArm
								{
									OFFSET 27.459126 0.000000 0.000000
									CHANNELS 3 Zrotation Yrotation Xrotation
									End Site #name: LeftHand
									{
										OFFSET 21.306858 0.000000 0.000000
									}
								}
							}
						}
					}
					JOINT Spine2_RightShoulder
					{
						OFFSET 0.000000 0.000000 0.000000
						CHANNELS 3 Zrotation Yrotation Xrotation
						JOINT RightShoulder
						{
							OFFSET -5.580300 6.737503 -0.344400
							CHANNELS 3 Zrotation Yrotation Xrotation
							JOINT RightArm
							{
								OFFSET -10.679335 -0.188484 -2.383900
								CHANNELS 3 Zrotation Yrotation Xrotation
								JOINT RightForeArm
								{
									OFFSET -27.503529 0.000000 0.000000
									CHANNELS 3 Zrotation Yrotation Xrotation
									End Site #name: RightHand
									{
										OFFSET -21.306808 0.000000 0.000000
									}
								}
							}
						}
					}
				}
			}
		}
	}
	JOINT Hips_LeftUpLeg
	{
		OFFSET 0.000000 0.000000 0.000000
		CHANNELS 3 Zrotation Yrotation Xrotation
		JOINT LeftUpLeg
		{
			OFFSET 6.857700 -6.739601 0.312100
			CHANNELS 3 Zrotation Yrotation Xrotation
			JOINT LeftLeg
			{
				OFFSET -0.367590 -34.731552 -4.572400
				CHANNELS 3 Zrotation Yrotation Xrotation
				End Site #name: LeftFoot
				{
					OFFSET 0.367590 -34.656704 -6.067400
				}
			}
		}
	}
	JOINT Hips_RightUpLeg
	{
		OFFSET 0.000000 0.000000 0.000000
		CHANNELS 3 Zrotation Yrotation Xrotation
		JOINT RightUpLeg
		{
			OFFSET -6.876100 -6.733299 0.301000
			CHANNELS 3 Zrotation Yrotation Xrotation
			JOINT RightLeg
			{
				OFFSET 0.347353 -34.795158 -4.515900
				CHANNELS 3 Zrotation Yrotation Xrotation
				End Site #name: RightFoot
				{
					OFFSET -0.347353 -34.589367 -6.070300
				}
			}
		}
	}
}
MOTION
Frames: 7
Frame Time: 0.041667
0.168518 0.046049 -0.007919 0.998850 23.921227 -6.328633 -0.000000 0.000000 0.000000 -1.011049 -1.421120 0.870154 0.021157 -1.397429 -0.613300 0.000000 0.000000 0.000000 0.007737 -0.788124 -1.324508 3.537260 0.000434 -4.031832 0.373071 -1.698565 -2.184515 -17.214091 -7.501704 1.951820 -46.887397 1.631345 8.093698 -0.057780 -28.824409 5.987743 0.054662 -1.123533 -0.375556 13.533818 11.104231 4.346354 57.321784 -4.505289 -3.613034 -0.289270 48.126994 0.750371 0.000000 0.000000 0.000000 -10.458444 18.198644 -4.749463 -1.239503 -1.537693 22.939234 0.000000 0.000000 0.000000 -4.706252 14.670455 -7.399160 7.120897 1.177397 -3.979590 
0.737295 -0.036487 0.167969 2.953919 26.452318 -6.522154 -0.000000 0.000000 0.000000 -3.391903 -2.417935 0.312457 0.416127 -1.345444 -0.794662 0.000000 0.000000 0.000000 0.147704 -0.862334 -2.014764 4.111403 -1.776464 -2.878031 -0.305727 -1.354863 -2.721867 -22.252423 -4.617233 0.296858 -45.504506 2.271080 -0.265065 -0.672696 -22.488429 3.529705 -0.048482 -1.315755 -0.578407 14.066790 8.370300 1.734199 59.377398 0.006745 -5.322990 -0.282261 48.121403 -0.816480 0.000000 0.000000 -0.000000 -13.508892 15.896913 -1.755164 -0.526579 2.045526 20.556077 0.000000 0.000000 0.000000 -8.802194 16.247790 -7.264300 7.036277 0.555298 -2.594902 
1.052700 -0.075292 0.222669 4.367147 25.431347 -6.595485 -0.000000 0.000000 -0.000000 -4.718657 -3.472264 0.583293 0.428434 -1.120666 -0.810527 0.000000 0.000000 0.000000 0.649454 -1.241575 -1.954230 3.451766 -2.359205 -3.874326 -0.409083 -1.317283 -2.412789 -25.725443 -3.855823 1.741181 -46.768017 9.678171 -4.893794 -1.243918 -25.056292 3.697833 0.102881 -1.243074 -0.444105 13.294939 7.423599 1.971207 58.587001 2.196020 -4.811788 -0.022730 42.890829 -0.708816 0.000000 0.000000 -0.000000 -15.397396 15.636325 0.057418 -1.119797 2.504295 18.940392 0.000000 0.000000 0.000000 -10.808312 17.115607 -9.438217 6.453985 -1.419470 2.057488 
1.327489 -0.106019 0.213605 5.046737 23.792696 -6.331303 -0.000000 0.000000 -0.000000 -5.628285 -3.059500 1.468821 0.477617 -1.084386 -0.719831 0.000000 0.000000 0.000000 0.911707 -1.360392 -1.798561 3.467041 -3.286824 -3.584619 -0.225344 -1.371783 -2.243652 -27.196481 -3.451985 2.622134 -46.465783 11.120062 -4.911249 -1.044962 -25.382028 5.645936 0.261345 -1.207626 -0.326746 12.376085 7.323510 1.962275 58.480164 4.992376 -3.630500 0.134727 44.556193 -0.638797 0.000000 0.000000 -0.000000 -16.281894 15.858682 0.324251 -1.256270 3.167980 18.482837 0.000000 0.000000 0.000000 -12.169950 16.489244 -12.197223 5.832335 -1.519006 7.815727 
1.644485 -0.113036 0.167777 5.320677 23.116132 -5.847360 -0.000000 0.000000 -0.000000 -6.177837 -2.496988 1.381774 0.462429 -1.068079 -0.612059 0.000000 0.000000 0.000000 0.918366 -1.437327 -1.840788 3.379013 -4.237220 -2.785087 -0.159751 -1.421231 -2.083726 -29.094052 -2.586302 3.592851 -44.703134 11.517561 -5.216399 -0.505111 -22.224201 7.717712 0.323856 -1.189314 -0.211680 10.792133 7.364668 1.817858 59.321171 6.389571 -3.648095 0.178055 46.483435 -0.720840 0.000000 0.000000 -0.000000 -16.863587 16.242181 0.342149 -1.226634 3.430377 17.921494 0.000000 0.000000 0.000000 -13.286163 15.565462 -14.035835 5.520244 -0.763512 11.886747 
1.992679 -0.101341 0.109405 5.350470 23.143920 -5.504000 -0.000000 0.000000 -0.000000 -6.515494 -2.224849 0.855599 0.386126 -1.029833 -0.519541 0.000000 0.000000 0.000000 0.741165 -1.473804 -1.828263 2.928984 -4.935492 -1.683699 -0.208430 -1.463550 -1.989492 -30.903430 -1.840200 4.211666 -42.661466 11.220239 -4.649156 -0.031716 -17.955974 9.010849 0.266014 -1.226036 -0.206144 9.409473 7.403949 1.663735 60.748213 6.381490 -4.411873 0.324240 46.774361 -0.731029 0.000000 0.000000 -0.000000 -17.191601 16.524709 0.257049 -1.189288 3.507601 17.380092 0.000000 0.000000 0.000000 -14.084031 14.737640 -14.801574 5.472194 0.261054 14.138208 
2.356851 -0.079323 0.053179 5.195803 23.771121 -5.318589 -0.000000 0.000000 -0.000000 -6.542765 -2.049132 0.292163 0.239077 -0.966885 -0.531216 0.000000 0.000000 0.000000 0.514207 -1.478544 -1.809912 2.380598 -5.344945 -0.854654 -0.366514 -1.464349 -1.988657 -32.360027 -1.100055 4.469823 -40.599274 10.904306 -3.845939 0.363896 -13.569648 9.542556 0.105483 -1.230003 -0.246113 8.517855 7.360455 1.576582 62.444897 5.284162 -5.547112 0.485792 46.054704 -0.725430 0.000000 0.000000 -0.000000 -17.333332 16.646003 0.019293 -1.120946 3.593406 17.147985 0.000000 0.000000 0.000000 -14.627308 13.722156 -14.887504 5.524736 1.308266 15.379285 
